<svg width="24" height="25" viewBox="0 0 24 25" fill="none" xmlns="http://www.w3.org/2000/svg">
<path d="M19 18.5H9C8.46957 18.5 7.96086 18.2893 7.58579 17.9142C7.21071 17.5391 7 17.0304 7 16.5V4.5C7 3.96957 7.21071 3.46086 7.58579 3.08579C7.96086 2.71071 8.46957 2.5 9 2.5H10V7.5L12 6L14 7.5V2.5H19C19.5304 2.5 20.0391 2.71071 20.4142 3.08579C20.7893 3.46086 21 3.96957 21 4.5V16.5C21 17.0304 20.7893 17.5391 20.4142 17.9142C20.0391 18.2893 19.5304 18.5 19 18.5ZM17 20.5V22.5H5C4.46957 22.5 3.96086 22.2893 3.58579 21.9142C3.21071 21.5391 3 21.0304 3 20.5V6.5H5V20.5H17Z" fill="#0D0D0D"/>
</svg>
