<svg width="16" height="16" viewBox="0 0 16 16" fill="none" xmlns="http://www.w3.org/2000/svg">
<path d="M3.73333 1.33325C3.27362 1.33325 2.83274 1.51587 2.50768 1.84093C2.18262 2.166 2 2.60688 2 3.06659V6.26659C2 6.49421 2.04483 6.71961 2.13194 6.9299C2.21905 7.1402 2.34673 7.33128 2.50768 7.49224C2.83274 7.8173 3.27362 7.99992 3.73333 7.99992H5.6C6.05971 7.99992 6.50059 7.8173 6.82565 7.49224C7.15071 7.16717 7.33333 6.72629 7.33333 6.26659V3.06659C7.33333 2.60688 7.15071 2.166 6.82565 1.84093C6.50059 1.51587 6.05971 1.33325 5.6 1.33325H3.73333ZM3.73333 9.33325C3.27362 9.33325 2.83274 9.51587 2.50768 9.84093C2.18262 10.166 2 10.6069 2 11.0666V12.9333C2 13.393 2.18262 13.8338 2.50768 14.1589C2.83274 14.484 3.27362 14.6666 3.73333 14.6666H5.6C6.05971 14.6666 6.50059 14.484 6.82565 14.1589C7.15071 13.8338 7.33333 13.393 7.33333 12.9333V11.0666C7.33333 10.6069 7.15071 10.166 6.82565 9.84093C6.50059 9.51587 6.05971 9.33325 5.6 9.33325H3.73333ZM10.4 1.33325C9.94029 1.33325 9.49941 1.51587 9.17435 1.84093C8.84929 2.166 8.66667 2.60688 8.66667 3.06659V4.93325C8.66667 5.39296 8.84929 5.83384 9.17435 6.1589C9.49941 6.48397 9.94029 6.66659 10.4 6.66659H12.2667C12.4943 6.66659 12.7197 6.62175 12.93 6.53464C13.1403 6.44754 13.3314 6.31986 13.4923 6.1589C13.6533 5.99795 13.7809 5.80687 13.8681 5.59657C13.9552 5.38627 14 5.16088 14 4.93325V3.06659C14 2.83896 13.9552 2.61357 13.8681 2.40327C13.7809 2.19297 13.6533 2.00189 13.4923 1.84093C13.3314 1.67998 13.1403 1.5523 12.93 1.46519C12.7197 1.37809 12.4943 1.33325 12.2667 1.33325H10.4ZM10.4 7.99992C9.94029 7.99992 9.49941 8.18254 9.17435 8.5076C8.84929 8.83266 8.66667 9.27354 8.66667 9.73325V12.9333C8.66667 13.393 8.84929 13.8338 9.17435 14.1589C9.49941 14.484 9.94029 14.6666 10.4 14.6666H12.2667C12.4943 14.6666 12.7197 14.6218 12.93 14.5346C13.1403 14.4475 13.3314 14.3199 13.4923 14.1589C13.6533 13.9979 13.7809 13.8069 13.8681 13.5966C13.9552 13.3863 14 13.1609 14 12.9333V9.73325C14 9.50563 13.9552 9.28023 13.8681 9.06993C13.7809 8.85964 13.6533 8.66856 13.4923 8.5076C13.3314 8.34665 13.1403 8.21897 12.93 8.13186C12.7197 8.04475 12.4943 7.99992 12.2667 7.99992H10.4Z" fill="#FFFEFC"/>
</svg>
