<svg width="24" height="25" viewBox="0 0 24 25" fill="none" xmlns="http://www.w3.org/2000/svg">
<path d="M5.6 2.5C4.91044 2.5 4.24912 2.77393 3.76152 3.26152C3.27393 3.74912 3 4.41044 3 5.1V9.9C3 10.2414 3.06725 10.5795 3.19791 10.895C3.32858 11.2104 3.52009 11.497 3.76152 11.7385C4.24912 12.2261 4.91044 12.5 5.6 12.5H8.4C9.08956 12.5 9.75088 12.2261 10.2385 11.7385C10.7261 11.2509 11 10.5896 11 9.9V5.1C11 4.41044 10.7261 3.74912 10.2385 3.26152C9.75088 2.77393 9.08956 2.5 8.4 2.5H5.6ZM5.6 14.5C4.91044 14.5 4.24912 14.7739 3.76152 15.2615C3.27393 15.7491 3 16.4104 3 17.1V19.9C3 20.5896 3.27393 21.2509 3.76152 21.7385C4.24912 22.2261 4.91044 22.5 5.6 22.5H8.4C9.08956 22.5 9.75088 22.2261 10.2385 21.7385C10.7261 21.2509 11 20.5896 11 19.9V17.1C11 16.4104 10.7261 15.7491 10.2385 15.2615C9.75088 14.7739 9.08956 14.5 8.4 14.5H5.6ZM15.6 2.5C14.9104 2.5 14.2491 2.77393 13.7615 3.26152C13.2739 3.74912 13 4.41044 13 5.1V7.9C13 8.58956 13.2739 9.25088 13.7615 9.73848C14.2491 10.2261 14.9104 10.5 15.6 10.5H18.4C18.7414 10.5 19.0795 10.4327 19.395 10.3021C19.7104 10.1714 19.997 9.97991 20.2385 9.73848C20.4799 9.49705 20.6714 9.21042 20.8021 8.89498C20.9327 8.57953 21 8.24144 21 7.9V5.1C21 4.75856 20.9327 4.42047 20.8021 4.10502C20.6714 3.78958 20.4799 3.50295 20.2385 3.26152C19.997 3.02009 19.7104 2.82858 19.395 2.69791C19.0795 2.56725 18.7414 2.5 18.4 2.5H15.6ZM15.6 12.5C14.9104 12.5 14.2491 12.7739 13.7615 13.2615C13.2739 13.7491 13 14.4104 13 15.1V19.9C13 20.5896 13.2739 21.2509 13.7615 21.7385C14.2491 22.2261 14.9104 22.5 15.6 22.5H18.4C18.7414 22.5 19.0795 22.4327 19.395 22.3021C19.7104 22.1714 19.997 21.9799 20.2385 21.7385C20.4799 21.497 20.6714 21.2104 20.8021 20.895C20.9327 20.5795 21 20.2414 21 19.9V15.1C21 14.7586 20.9327 14.4205 20.8021 14.105C20.6714 13.7896 20.4799 13.503 20.2385 13.2615C19.997 13.0201 19.7104 12.8286 19.395 12.6979C19.0795 12.5673 18.7414 12.5 18.4 12.5H15.6Z" fill="#0D0D0D"/>
</svg>
