<svg xmlns="http://www.w3.org/2000/svg" width="24" height="24" viewBox="0 0 24 24" fill="none">
<path d="M14 15C14.2833 15 14.5293 14.896 14.738 14.688C14.9467 14.48 15.0507 14.234 15.05 13.95C15.0493 13.666 14.9453 13.4203 14.738 13.213C14.5307 13.0057 14.2847 12.9013 14 12.9C13.7153 12.8987 13.4697 13.003 13.263 13.213C13.0563 13.423 12.952 13.6687 12.95 13.95C12.948 14.2313 13.0523 14.4773 13.263 14.688C13.4737 14.8987 13.7193 15.0027 14 15ZM13.25 11.8H14.75C14.75 11.3167 14.8 10.9627 14.9 10.738C15 10.5133 15.2333 10.2173 15.6 9.85C16.1 9.35 16.4333 8.946 16.6 8.638C16.7667 8.33 16.85 7.96733 16.85 7.55C16.85 6.8 16.5873 6.18767 16.062 5.713C15.5367 5.23833 14.8493 5.00067 14 5C13.3167 5 12.721 5.19167 12.213 5.575C11.705 5.95833 11.3507 6.46667 11.15 7.1L12.5 7.65C12.65 7.23333 12.8543 6.921 13.113 6.713C13.3717 6.505 13.6673 6.40067 14 6.4C14.4 6.4 14.725 6.51267 14.975 6.738C15.225 6.96333 15.35 7.26733 15.35 7.65C15.35 7.88333 15.2833 8.10433 15.15 8.313C15.0167 8.52167 14.7833 8.784 14.45 9.1C13.9 9.58333 13.5627 9.96267 13.438 10.238C13.3133 10.5133 13.2507 11.034 13.25 11.8ZM8 18C7.45 18 6.97933 17.8043 6.588 17.413C6.19667 17.0217 6.00067 16.5507 6 16V4C6 3.45 6.196 2.97933 6.588 2.588C6.98 2.19667 7.45067 2.00067 8 2H20C20.55 2 21.021 2.196 21.413 2.588C21.805 2.98 22.0007 3.45067 22 4V16C22 16.55 21.8043 17.021 21.413 17.413C21.0217 17.805 20.5507 18.0007 20 18H8ZM4 22C3.45 22 2.97933 21.8043 2.588 21.413C2.19667 21.0217 2.00067 20.5507 2 20V6H4V20H18V22H4Z" fill="#ffff"/>
</svg>